<mxfile host="app.diagrams.net" modified="2023-03-29T07:58:50.896Z" agent="Mozilla/5.0 (Windows NT 10.0; Win64; x64) AppleWebKit/537.36 (KHTML, like Gecko) Chrome/101.0.0.0 Safari/537.36" etag="vw_TOdsSREW0Dgo0BE-x" version="21.1.1" type="github" pages="4">
  <diagram name="Workflow" id="2dQwfWUj7SHDJcY4iqtX">
    <mxGraphModel dx="2284" dy="1874" grid="1" gridSize="10" guides="1" tooltips="1" connect="1" arrows="1" fold="1" page="1" pageScale="1" pageWidth="850" pageHeight="1100" math="0" shadow="0">
      <root>
        <mxCell id="0" />
        <mxCell id="1" parent="0" />
        <mxCell id="Q25p3ouY3zWikEKPChKH-11" value="" style="edgeStyle=orthogonalEdgeStyle;rounded=0;orthogonalLoop=1;jettySize=auto;html=1;" parent="1" source="YwquEOC9PIAEwXkHVDcG-1" target="Q25p3ouY3zWikEKPChKH-6" edge="1">
          <mxGeometry relative="1" as="geometry" />
        </mxCell>
        <mxCell id="YwquEOC9PIAEwXkHVDcG-1" value="User select a softeware" style="rounded=0;whiteSpace=wrap;html=1;" parent="1" vertex="1">
          <mxGeometry x="346" y="165" width="120" height="60" as="geometry" />
        </mxCell>
        <mxCell id="Q25p3ouY3zWikEKPChKH-14" value="" style="edgeStyle=orthogonalEdgeStyle;rounded=0;orthogonalLoop=1;jettySize=auto;html=1;" parent="1" source="YwquEOC9PIAEwXkHVDcG-3" target="Q25p3ouY3zWikEKPChKH-4" edge="1">
          <mxGeometry relative="1" as="geometry" />
        </mxCell>
        <mxCell id="YwquEOC9PIAEwXkHVDcG-3" value="User login Nexus" style="rounded=0;whiteSpace=wrap;html=1;" parent="1" vertex="1">
          <mxGeometry x="-50" y="165" width="120" height="60" as="geometry" />
        </mxCell>
        <mxCell id="Q25p3ouY3zWikEKPChKH-12" value="Yes" style="edgeStyle=orthogonalEdgeStyle;rounded=0;orthogonalLoop=1;jettySize=auto;html=1;" parent="1" source="Q25p3ouY3zWikEKPChKH-4" target="YwquEOC9PIAEwXkHVDcG-1" edge="1">
          <mxGeometry relative="1" as="geometry" />
        </mxCell>
        <mxCell id="Q25p3ouY3zWikEKPChKH-4" value="Login success" style="rhombus;whiteSpace=wrap;html=1;" parent="1" vertex="1">
          <mxGeometry x="147" y="145" width="110" height="100" as="geometry" />
        </mxCell>
        <mxCell id="Q25p3ouY3zWikEKPChKH-8" value="Yes" style="edgeStyle=orthogonalEdgeStyle;rounded=0;orthogonalLoop=1;jettySize=auto;html=1;" parent="1" source="Q25p3ouY3zWikEKPChKH-6" target="Q25p3ouY3zWikEKPChKH-7" edge="1">
          <mxGeometry relative="1" as="geometry" />
        </mxCell>
        <mxCell id="Q25p3ouY3zWikEKPChKH-10" value="No" style="edgeStyle=orthogonalEdgeStyle;rounded=0;orthogonalLoop=1;jettySize=auto;html=1;" parent="1" source="Q25p3ouY3zWikEKPChKH-6" target="Q25p3ouY3zWikEKPChKH-9" edge="1">
          <mxGeometry relative="1" as="geometry" />
        </mxCell>
        <mxCell id="Q25p3ouY3zWikEKPChKH-6" value="Nexus check user entitlement" style="rhombus;whiteSpace=wrap;html=1;" parent="1" vertex="1">
          <mxGeometry x="536" y="130" width="140" height="130" as="geometry" />
        </mxCell>
        <mxCell id="l06X_y3l7F8NzRxkke9U-2" value="" style="edgeStyle=orthogonalEdgeStyle;rounded=0;orthogonalLoop=1;jettySize=auto;html=1;" parent="1" source="Q25p3ouY3zWikEKPChKH-7" target="l06X_y3l7F8NzRxkke9U-1" edge="1">
          <mxGeometry relative="1" as="geometry" />
        </mxCell>
        <mxCell id="Q25p3ouY3zWikEKPChKH-7" value="Enable launch button" style="whiteSpace=wrap;html=1;" parent="1" vertex="1">
          <mxGeometry x="766" y="165" width="120" height="60" as="geometry" />
        </mxCell>
        <mxCell id="Q25p3ouY3zWikEKPChKH-9" value="Disable launch button" style="whiteSpace=wrap;html=1;" parent="1" vertex="1">
          <mxGeometry x="546" y="369" width="120" height="60" as="geometry" />
        </mxCell>
        <mxCell id="Q25p3ouY3zWikEKPChKH-18" value="" style="edgeStyle=orthogonalEdgeStyle;rounded=0;orthogonalLoop=1;jettySize=auto;html=1;" parent="1" source="Q25p3ouY3zWikEKPChKH-16" target="Q25p3ouY3zWikEKPChKH-17" edge="1">
          <mxGeometry relative="1" as="geometry" />
        </mxCell>
        <mxCell id="Q25p3ouY3zWikEKPChKH-16" value="Customer purchase product entitlements" style="rounded=0;whiteSpace=wrap;html=1;" parent="1" vertex="1">
          <mxGeometry x="-50" y="-223" width="130" height="80" as="geometry" />
        </mxCell>
        <mxCell id="z8qltQJUWiTNnkdVbH2K-3" value="" style="edgeStyle=orthogonalEdgeStyle;rounded=0;orthogonalLoop=1;jettySize=auto;html=1;entryX=0.5;entryY=0;entryDx=0;entryDy=0;" parent="1" source="Q25p3ouY3zWikEKPChKH-17" target="Q25p3ouY3zWikEKPChKH-19" edge="1">
          <mxGeometry relative="1" as="geometry">
            <Array as="points">
              <mxPoint x="220" y="-90" />
              <mxPoint x="10" y="-90" />
            </Array>
          </mxGeometry>
        </mxCell>
        <mxCell id="Q25p3ouY3zWikEKPChKH-17" value="HULL team create entitlements&amp;nbsp;in &#39;Floating Concurrent User&#39; model" style="whiteSpace=wrap;html=1;rounded=0;" parent="1" vertex="1">
          <mxGeometry x="150" y="-223" width="140" height="80" as="geometry" />
        </mxCell>
        <mxCell id="Q25p3ouY3zWikEKPChKH-21" value="" style="edgeStyle=orthogonalEdgeStyle;rounded=0;orthogonalLoop=1;jettySize=auto;html=1;" parent="1" source="Q25p3ouY3zWikEKPChKH-19" target="Q25p3ouY3zWikEKPChKH-20" edge="1">
          <mxGeometry relative="1" as="geometry" />
        </mxCell>
        <mxCell id="Q25p3ouY3zWikEKPChKH-19" value="Organization Admin login Nexus" style="whiteSpace=wrap;html=1;" parent="1" vertex="1">
          <mxGeometry x="-50" y="-30" width="120" height="60" as="geometry" />
        </mxCell>
        <mxCell id="Q25p3ouY3zWikEKPChKH-23" value="" style="edgeStyle=orthogonalEdgeStyle;rounded=0;orthogonalLoop=1;jettySize=auto;html=1;" parent="1" source="Q25p3ouY3zWikEKPChKH-20" target="Q25p3ouY3zWikEKPChKH-22" edge="1">
          <mxGeometry relative="1" as="geometry" />
        </mxCell>
        <mxCell id="Q25p3ouY3zWikEKPChKH-20" value="Admin select organization" style="whiteSpace=wrap;html=1;" parent="1" vertex="1">
          <mxGeometry x="150" y="-30" width="120" height="60" as="geometry" />
        </mxCell>
        <mxCell id="Q25p3ouY3zWikEKPChKH-25" value="" style="edgeStyle=orthogonalEdgeStyle;rounded=0;orthogonalLoop=1;jettySize=auto;html=1;" parent="1" source="Q25p3ouY3zWikEKPChKH-22" target="Q25p3ouY3zWikEKPChKH-24" edge="1">
          <mxGeometry relative="1" as="geometry" />
        </mxCell>
        <mxCell id="Q25p3ouY3zWikEKPChKH-22" value="Admin go to entitlements list" style="whiteSpace=wrap;html=1;" parent="1" vertex="1">
          <mxGeometry x="350" y="-30" width="120" height="60" as="geometry" />
        </mxCell>
        <mxCell id="Q25p3ouY3zWikEKPChKH-27" value="" style="edgeStyle=orthogonalEdgeStyle;rounded=0;orthogonalLoop=1;jettySize=auto;html=1;" parent="1" source="Q25p3ouY3zWikEKPChKH-24" target="Q25p3ouY3zWikEKPChKH-26" edge="1">
          <mxGeometry relative="1" as="geometry" />
        </mxCell>
        <mxCell id="Q25p3ouY3zWikEKPChKH-24" value="Admin review available user count for entitlement" style="whiteSpace=wrap;html=1;" parent="1" vertex="1">
          <mxGeometry x="550" y="-30" width="120" height="60" as="geometry" />
        </mxCell>
        <mxCell id="Q25p3ouY3zWikEKPChKH-29" value="Yes" style="edgeStyle=orthogonalEdgeStyle;rounded=0;orthogonalLoop=1;jettySize=auto;html=1;" parent="1" source="Q25p3ouY3zWikEKPChKH-26" target="Q25p3ouY3zWikEKPChKH-28" edge="1">
          <mxGeometry relative="1" as="geometry" />
        </mxCell>
        <mxCell id="Q25p3ouY3zWikEKPChKH-26" value="Entitlement user limitation not reached" style="rhombus;whiteSpace=wrap;html=1;" parent="1" vertex="1">
          <mxGeometry x="770" y="-65" width="130" height="130" as="geometry" />
        </mxCell>
        <mxCell id="z8qltQJUWiTNnkdVbH2K-2" value="" style="edgeStyle=orthogonalEdgeStyle;rounded=0;orthogonalLoop=1;jettySize=auto;html=1;entryX=0.5;entryY=0;entryDx=0;entryDy=0;" parent="1" source="Q25p3ouY3zWikEKPChKH-28" target="YwquEOC9PIAEwXkHVDcG-3" edge="1">
          <mxGeometry relative="1" as="geometry">
            <mxPoint x="1045" y="140" as="targetPoint" />
            <Array as="points">
              <mxPoint x="1045" y="100" />
              <mxPoint x="10" y="100" />
            </Array>
          </mxGeometry>
        </mxCell>
        <mxCell id="Q25p3ouY3zWikEKPChKH-28" value="Admin assign user to product entitlement" style="whiteSpace=wrap;html=1;" parent="1" vertex="1">
          <mxGeometry x="985" y="-30" width="120" height="60" as="geometry" />
        </mxCell>
        <mxCell id="l06X_y3l7F8NzRxkke9U-4" value="" style="edgeStyle=orthogonalEdgeStyle;rounded=0;orthogonalLoop=1;jettySize=auto;html=1;" parent="1" source="l06X_y3l7F8NzRxkke9U-1" target="l06X_y3l7F8NzRxkke9U-3" edge="1">
          <mxGeometry relative="1" as="geometry" />
        </mxCell>
        <mxCell id="l06X_y3l7F8NzRxkke9U-1" value="App launch" style="whiteSpace=wrap;html=1;" parent="1" vertex="1">
          <mxGeometry x="966" y="165" width="120" height="60" as="geometry" />
        </mxCell>
        <mxCell id="l06X_y3l7F8NzRxkke9U-6" value="Yes" style="edgeStyle=orthogonalEdgeStyle;rounded=0;orthogonalLoop=1;jettySize=auto;html=1;" parent="1" source="l06X_y3l7F8NzRxkke9U-3" target="l06X_y3l7F8NzRxkke9U-5" edge="1">
          <mxGeometry relative="1" as="geometry" />
        </mxCell>
        <mxCell id="l06X_y3l7F8NzRxkke9U-8" value="No" style="edgeStyle=orthogonalEdgeStyle;rounded=0;orthogonalLoop=1;jettySize=auto;html=1;" parent="1" source="l06X_y3l7F8NzRxkke9U-3" target="l06X_y3l7F8NzRxkke9U-7" edge="1">
          <mxGeometry relative="1" as="geometry" />
        </mxCell>
        <mxCell id="l06X_y3l7F8NzRxkke9U-3" value="App check user entitlement" style="rhombus;whiteSpace=wrap;html=1;" parent="1" vertex="1">
          <mxGeometry x="1176" y="132.5" width="124" height="125" as="geometry" />
        </mxCell>
        <mxCell id="l06X_y3l7F8NzRxkke9U-5" value="Continue" style="whiteSpace=wrap;html=1;" parent="1" vertex="1">
          <mxGeometry x="1382" y="165" width="120" height="60" as="geometry" />
        </mxCell>
        <mxCell id="l06X_y3l7F8NzRxkke9U-7" value="Deny of service" style="whiteSpace=wrap;html=1;" parent="1" vertex="1">
          <mxGeometry x="1178" y="370" width="120" height="60" as="geometry" />
        </mxCell>
      </root>
    </mxGraphModel>
  </diagram>
  <diagram id="yeY0W6i4McD_Fl_-XDmd" name="Dataflow">
    <mxGraphModel dx="2284" dy="1874" grid="1" gridSize="10" guides="1" tooltips="1" connect="1" arrows="1" fold="1" page="1" pageScale="1" pageWidth="850" pageHeight="1100" math="0" shadow="0">
      <root>
        <mxCell id="0" />
        <mxCell id="1" parent="0" />
        <mxCell id="7qR9HHsSMILSXLW8vC7M-3" value="Customer" style="whiteSpace=wrap;align=center;verticalAlign=middle;fontStyle=1;strokeWidth=3;fillColor=#FFFFCC" parent="1" vertex="1">
          <mxGeometry x="-60" y="-1050" width="90" height="60" as="geometry" />
        </mxCell>
        <mxCell id="7qR9HHsSMILSXLW8vC7M-15" value="" style="edgeStyle=none;noEdgeStyle=1;strokeColor=#990000;strokeWidth=2;entryX=0;entryY=0.5;entryDx=0;entryDy=0;" parent="1" source="7qR9HHsSMILSXLW8vC7M-3" target="OBXchac6QpqI_Xxo9cKc-3" edge="1">
          <mxGeometry width="100" height="100" relative="1" as="geometry">
            <mxPoint x="340.5" y="-1111" as="sourcePoint" />
            <mxPoint x="120.5" y="-1020" as="targetPoint" />
          </mxGeometry>
        </mxCell>
        <mxCell id="7qR9HHsSMILSXLW8vC7M-63" value="Sentinel" style="shape=process;whiteSpace=wrap;align=center;verticalAlign=middle;size=0.0475;fontStyle=1;strokeWidth=3;fillColor=#FFCCCC" parent="1" vertex="1">
          <mxGeometry x="513.5" y="-875" width="151.5" height="50" as="geometry" />
        </mxCell>
        <mxCell id="7qR9HHsSMILSXLW8vC7M-64" value="Team HULL" style="whiteSpace=wrap;align=center;verticalAlign=middle;fontStyle=1;strokeWidth=3;fillColor=#FFFFCC" parent="1" vertex="1">
          <mxGeometry x="301.5" y="-1050" width="90" height="60" as="geometry" />
        </mxCell>
        <mxCell id="7qR9HHsSMILSXLW8vC7M-66" value="" style="edgeStyle=none;noEdgeStyle=1;strokeColor=#990000;strokeWidth=2;entryX=0;entryY=0.5;entryDx=0;entryDy=0;exitX=1;exitY=0.5;exitDx=0;exitDy=0;" parent="1" source="OBXchac6QpqI_Xxo9cKc-13" target="7qR9HHsSMILSXLW8vC7M-63" edge="1">
          <mxGeometry width="100" height="100" relative="1" as="geometry">
            <mxPoint x="351" y="-850.5" as="sourcePoint" />
            <mxPoint x="505" y="-850" as="targetPoint" />
          </mxGeometry>
        </mxCell>
        <mxCell id="7qR9HHsSMILSXLW8vC7M-69" value="Organization Admin" style="whiteSpace=wrap;align=center;verticalAlign=middle;fontStyle=1;strokeWidth=3;fillColor=#FFFFCC" parent="1" vertex="1">
          <mxGeometry x="544.25" y="-594" width="90" height="60" as="geometry" />
        </mxCell>
        <mxCell id="7qR9HHsSMILSXLW8vC7M-70" value="" style="edgeStyle=none;noEdgeStyle=1;strokeColor=#990000;strokeWidth=2;exitX=0.5;exitY=1;exitDx=0;exitDy=0;entryX=0.5;entryY=0;entryDx=0;entryDy=0;" parent="1" source="7qR9HHsSMILSXLW8vC7M-63" target="7qR9HHsSMILSXLW8vC7M-71" edge="1">
          <mxGeometry width="100" height="100" relative="1" as="geometry">
            <mxPoint x="361" y="-840.5" as="sourcePoint" />
            <mxPoint x="589" y="-750" as="targetPoint" />
          </mxGeometry>
        </mxCell>
        <mxCell id="7qR9HHsSMILSXLW8vC7M-71" value="Nexus EMS" style="shape=process;whiteSpace=wrap;align=center;verticalAlign=middle;size=0.0475;fontStyle=1;strokeWidth=3;fillColor=#FFCCCC" parent="1" vertex="1">
          <mxGeometry x="513.5" y="-740" width="151.5" height="50" as="geometry" />
        </mxCell>
        <mxCell id="7qR9HHsSMILSXLW8vC7M-74" value="Total user count of entitlement" style="text;spacingTop=-5;align=center;whiteSpace=wrap;" parent="1" vertex="1">
          <mxGeometry x="591" y="-800" width="104" height="20" as="geometry" />
        </mxCell>
        <mxCell id="7kmSRKALqI8SCc-55yx5-1" value="User" style="whiteSpace=wrap;align=center;verticalAlign=middle;fontStyle=1;strokeWidth=3;fillColor=#FFFFCC" parent="1" vertex="1">
          <mxGeometry x="850" y="-745" width="90" height="60" as="geometry" />
        </mxCell>
        <mxCell id="7kmSRKALqI8SCc-55yx5-2" value="" style="edgeStyle=none;noEdgeStyle=1;strokeColor=#990000;strokeWidth=2;entryX=0;entryY=0.5;entryDx=0;entryDy=0;exitX=1;exitY=0.5;exitDx=0;exitDy=0;" parent="1" source="7qR9HHsSMILSXLW8vC7M-71" target="7kmSRKALqI8SCc-55yx5-1" edge="1">
          <mxGeometry width="100" height="100" relative="1" as="geometry">
            <mxPoint x="665" y="-850.5" as="sourcePoint" />
            <mxPoint x="828" y="-850" as="targetPoint" />
          </mxGeometry>
        </mxCell>
        <mxCell id="OBXchac6QpqI_Xxo9cKc-1" value="" style="edgeStyle=none;noEdgeStyle=1;strokeColor=#990000;strokeWidth=2;exitX=0.5;exitY=1;exitDx=0;exitDy=0;entryX=0.5;entryY=0;entryDx=0;entryDy=0;" parent="1" source="7qR9HHsSMILSXLW8vC7M-71" target="7qR9HHsSMILSXLW8vC7M-69" edge="1">
          <mxGeometry width="100" height="100" relative="1" as="geometry">
            <mxPoint x="589.25" y="-664" as="sourcePoint" />
            <mxPoint x="599" y="-704" as="targetPoint" />
          </mxGeometry>
        </mxCell>
        <mxCell id="OBXchac6QpqI_Xxo9cKc-3" value="&lt;p style=&quot;margin: 0px; margin-top: 4px; text-align: center; text-decoration: underline;&quot;&gt;&lt;/p&gt;&lt;p style=&quot;margin: 0px; margin-left: 8px;&quot;&gt;&lt;br&gt;&lt;/p&gt;&lt;p style=&quot;margin: 0px; margin-left: 8px;&quot;&gt;Purchase software entitlements&lt;br&gt;&lt;/p&gt;" style="verticalAlign=middle;align=center;overflow=fill;fontSize=12;fontFamily=Helvetica;html=1;rounded=1;fontStyle=1;strokeWidth=3;fillColor=#E6FFCC;whiteSpace=wrap;" parent="1" vertex="1">
          <mxGeometry x="113" y="-1065" width="110" height="90" as="geometry" />
        </mxCell>
        <mxCell id="OBXchac6QpqI_Xxo9cKc-4" value="" style="edgeStyle=none;noEdgeStyle=1;strokeColor=#990000;strokeWidth=2;exitX=1;exitY=0.5;exitDx=0;exitDy=0;entryX=0;entryY=0.5;entryDx=0;entryDy=0;" parent="1" source="OBXchac6QpqI_Xxo9cKc-3" target="7qR9HHsSMILSXLW8vC7M-64" edge="1">
          <mxGeometry width="100" height="100" relative="1" as="geometry">
            <mxPoint x="230.5" y="-1020" as="sourcePoint" />
            <mxPoint x="130.5" y="-1010" as="targetPoint" />
          </mxGeometry>
        </mxCell>
        <mxCell id="OBXchac6QpqI_Xxo9cKc-6" value="Registration Token" style="text;spacingTop=-5;align=center;whiteSpace=wrap;" parent="1" vertex="1">
          <mxGeometry x="710" y="-740" width="104" height="20" as="geometry" />
        </mxCell>
        <mxCell id="OBXchac6QpqI_Xxo9cKc-8" value="&lt;p style=&quot;margin: 0px; margin-top: 4px; text-align: center; text-decoration: underline;&quot;&gt;&lt;strong&gt;&lt;br&gt;&lt;/strong&gt;&lt;/p&gt;&lt;p style=&quot;margin: 0px; margin-left: 8px;&quot;&gt;&lt;br&gt;&lt;/p&gt;&lt;p style=&quot;margin: 0px; margin-left: 8px;&quot;&gt;Launch Application&lt;/p&gt;" style="verticalAlign=middle;align=center;overflow=fill;fontSize=12;fontFamily=Helvetica;html=1;rounded=1;fontStyle=1;strokeWidth=3;fillColor=#E6FFCC;whiteSpace=wrap;" parent="1" vertex="1">
          <mxGeometry x="1040" y="-760" width="110" height="90" as="geometry" />
        </mxCell>
        <mxCell id="OBXchac6QpqI_Xxo9cKc-9" value="" style="edgeStyle=none;noEdgeStyle=1;strokeColor=#990000;strokeWidth=2;exitX=0.5;exitY=0;exitDx=0;exitDy=0;entryX=1;entryY=0.5;entryDx=0;entryDy=0;" parent="1" source="OBXchac6QpqI_Xxo9cKc-8" target="7qR9HHsSMILSXLW8vC7M-63" edge="1">
          <mxGeometry width="100" height="100" relative="1" as="geometry">
            <mxPoint x="599" y="-815" as="sourcePoint" />
            <mxPoint x="599" y="-730" as="targetPoint" />
            <Array as="points">
              <mxPoint x="1095" y="-850" />
            </Array>
          </mxGeometry>
        </mxCell>
        <mxCell id="OBXchac6QpqI_Xxo9cKc-10" value="" style="edgeStyle=none;noEdgeStyle=1;strokeColor=#990000;strokeWidth=2;entryX=0;entryY=0.5;entryDx=0;entryDy=0;exitX=1;exitY=0.5;exitDx=0;exitDy=0;" parent="1" source="7kmSRKALqI8SCc-55yx5-1" target="OBXchac6QpqI_Xxo9cKc-8" edge="1">
          <mxGeometry width="100" height="100" relative="1" as="geometry">
            <mxPoint x="675" y="-705" as="sourcePoint" />
            <mxPoint x="860" y="-705" as="targetPoint" />
          </mxGeometry>
        </mxCell>
        <mxCell id="OBXchac6QpqI_Xxo9cKc-11" value="Entitlement usage record" style="text;spacingTop=-5;align=center;whiteSpace=wrap;" parent="1" vertex="1">
          <mxGeometry x="850" y="-890" width="104" height="20" as="geometry" />
        </mxCell>
        <mxCell id="OBXchac6QpqI_Xxo9cKc-13" value="&lt;p style=&quot;margin: 0px; margin-top: 4px; text-align: center; text-decoration: underline;&quot;&gt;&lt;/p&gt;&lt;p style=&quot;margin: 0px; margin-left: 8px;&quot;&gt;&lt;br&gt;&lt;/p&gt;&lt;p style=&quot;margin: 0px; margin-left: 8px;&quot;&gt;Create &#39;Floating Concurrent User&#39; entitlements&lt;br&gt;&lt;/p&gt;" style="verticalAlign=middle;align=center;overflow=fill;fontSize=12;fontFamily=Helvetica;html=1;rounded=1;fontStyle=1;strokeWidth=3;fillColor=#E6FFCC;whiteSpace=wrap;" parent="1" vertex="1">
          <mxGeometry x="289" y="-895" width="110" height="90" as="geometry" />
        </mxCell>
        <mxCell id="OBXchac6QpqI_Xxo9cKc-14" value="" style="edgeStyle=none;noEdgeStyle=1;strokeColor=#990000;strokeWidth=2;exitX=0.5;exitY=1;exitDx=0;exitDy=0;" parent="1" source="7qR9HHsSMILSXLW8vC7M-64" target="OBXchac6QpqI_Xxo9cKc-13" edge="1">
          <mxGeometry width="100" height="100" relative="1" as="geometry">
            <mxPoint x="233" y="-1025" as="sourcePoint" />
            <mxPoint x="304" y="-1025" as="targetPoint" />
          </mxGeometry>
        </mxCell>
        <mxCell id="OBXchac6QpqI_Xxo9cKc-15" value="&lt;p style=&quot;margin: 0px; margin-top: 4px; text-align: center; text-decoration: underline;&quot;&gt;&lt;/p&gt;&lt;p style=&quot;margin: 0px; margin-left: 8px;&quot;&gt;&lt;br&gt;&lt;/p&gt;&lt;p style=&quot;margin: 0px; margin-left: 8px;&quot;&gt;&lt;br&gt;&lt;/p&gt;&lt;p style=&quot;margin: 0px; margin-left: 8px;&quot;&gt;Assign user to entitlement&lt;br&gt;&lt;/p&gt;" style="verticalAlign=middle;align=center;overflow=fill;fontSize=12;fontFamily=Helvetica;html=1;rounded=1;fontStyle=1;strokeWidth=3;fillColor=#E6FFCC;whiteSpace=wrap;" parent="1" vertex="1">
          <mxGeometry x="286" y="-690" width="110" height="90" as="geometry" />
        </mxCell>
        <mxCell id="OBXchac6QpqI_Xxo9cKc-16" value="" style="edgeStyle=none;noEdgeStyle=1;strokeColor=#990000;strokeWidth=2;entryX=0.5;entryY=1;entryDx=0;entryDy=0;exitX=0;exitY=0.5;exitDx=0;exitDy=0;" parent="1" source="7qR9HHsSMILSXLW8vC7M-69" target="OBXchac6QpqI_Xxo9cKc-15" edge="1">
          <mxGeometry width="100" height="100" relative="1" as="geometry">
            <mxPoint x="409" y="-814" as="sourcePoint" />
            <mxPoint x="346" y="-594" as="targetPoint" />
            <Array as="points">
              <mxPoint x="340" y="-564" />
            </Array>
          </mxGeometry>
        </mxCell>
        <mxCell id="OBXchac6QpqI_Xxo9cKc-17" value="" style="edgeStyle=none;noEdgeStyle=1;strokeColor=#990000;strokeWidth=2;entryX=0;entryY=0.5;entryDx=0;entryDy=0;exitX=0.5;exitY=0;exitDx=0;exitDy=0;" parent="1" source="OBXchac6QpqI_Xxo9cKc-15" target="7qR9HHsSMILSXLW8vC7M-71" edge="1">
          <mxGeometry width="100" height="100" relative="1" as="geometry">
            <mxPoint x="554" y="-554" as="sourcePoint" />
            <mxPoint x="351" y="-590" as="targetPoint" />
            <Array as="points">
              <mxPoint x="340" y="-715" />
            </Array>
          </mxGeometry>
        </mxCell>
        <mxCell id="OBXchac6QpqI_Xxo9cKc-18" value="Nexus &#xa;Solution/Product" style="shape=process;whiteSpace=wrap;align=center;verticalAlign=middle;size=0.0475;fontStyle=1;strokeWidth=3;fillColor=#FFCCCC" parent="1" vertex="1">
          <mxGeometry x="540" y="-1045" width="151.5" height="50" as="geometry" />
        </mxCell>
        <mxCell id="OBXchac6QpqI_Xxo9cKc-20" value="" style="edgeStyle=none;noEdgeStyle=1;strokeColor=#990000;strokeWidth=2;entryX=1;entryY=0.5;entryDx=0;entryDy=0;exitX=0;exitY=0.5;exitDx=0;exitDy=0;" parent="1" source="OBXchac6QpqI_Xxo9cKc-18" target="7qR9HHsSMILSXLW8vC7M-64" edge="1">
          <mxGeometry width="100" height="100" relative="1" as="geometry">
            <mxPoint x="450" y="-970" as="sourcePoint" />
            <mxPoint x="312" y="-1010" as="targetPoint" />
          </mxGeometry>
        </mxCell>
        <mxCell id="OBXchac6QpqI_Xxo9cKc-21" value="Product/Feature Code" style="text;spacingTop=-5;align=center;whiteSpace=wrap;" parent="1" vertex="1">
          <mxGeometry x="410" y="-1050" width="104" height="20" as="geometry" />
        </mxCell>
      </root>
    </mxGraphModel>
  </diagram>
  <diagram id="fXig38YI9zBuYBIySYjb" name="License Limit Reduced">
    <mxGraphModel dx="1434" dy="717" grid="1" gridSize="10" guides="1" tooltips="1" connect="1" arrows="1" fold="1" page="1" pageScale="1" pageWidth="850" pageHeight="1100" math="0" shadow="0">
      <root>
        <mxCell id="0" />
        <mxCell id="1" parent="0" />
        <mxCell id="Og3__Hb2zOryTFHM7Znv-2" value="" style="edgeStyle=orthogonalEdgeStyle;rounded=0;orthogonalLoop=1;jettySize=auto;html=1;" edge="1" parent="1" source="SUUwkzFtN8AckQQWqOuF-1" target="Og3__Hb2zOryTFHM7Znv-1">
          <mxGeometry relative="1" as="geometry" />
        </mxCell>
        <mxCell id="SUUwkzFtN8AckQQWqOuF-1" value="Customer ask for reduce license count" style="rounded=0;whiteSpace=wrap;html=1;" vertex="1" parent="1">
          <mxGeometry x="80" y="180" width="120" height="60" as="geometry" />
        </mxCell>
        <mxCell id="Og3__Hb2zOryTFHM7Znv-4" value="" style="edgeStyle=orthogonalEdgeStyle;rounded=0;orthogonalLoop=1;jettySize=auto;html=1;" edge="1" parent="1" source="Og3__Hb2zOryTFHM7Znv-1" target="Og3__Hb2zOryTFHM7Znv-3">
          <mxGeometry relative="1" as="geometry">
            <Array as="points">
              <mxPoint x="340" y="280" />
              <mxPoint x="140" y="280" />
            </Array>
          </mxGeometry>
        </mxCell>
        <mxCell id="Og3__Hb2zOryTFHM7Znv-1" value="Team HULL operates in Sentinel" style="whiteSpace=wrap;html=1;rounded=0;" vertex="1" parent="1">
          <mxGeometry x="280" y="180" width="120" height="60" as="geometry" />
        </mxCell>
        <mxCell id="Og3__Hb2zOryTFHM7Znv-6" value="" style="edgeStyle=orthogonalEdgeStyle;rounded=0;orthogonalLoop=1;jettySize=auto;html=1;" edge="1" parent="1" source="Og3__Hb2zOryTFHM7Znv-3" target="Og3__Hb2zOryTFHM7Znv-5">
          <mxGeometry relative="1" as="geometry" />
        </mxCell>
        <mxCell id="Og3__Hb2zOryTFHM7Znv-3" value="Organization Admin receive notification on the license count reduction" style="whiteSpace=wrap;html=1;rounded=0;" vertex="1" parent="1">
          <mxGeometry x="80" y="330" width="120" height="60" as="geometry" />
        </mxCell>
        <mxCell id="Og3__Hb2zOryTFHM7Znv-8" value="" style="edgeStyle=orthogonalEdgeStyle;rounded=0;orthogonalLoop=1;jettySize=auto;html=1;" edge="1" parent="1" source="Og3__Hb2zOryTFHM7Znv-5" target="Og3__Hb2zOryTFHM7Znv-7">
          <mxGeometry relative="1" as="geometry" />
        </mxCell>
        <mxCell id="Og3__Hb2zOryTFHM7Znv-5" value="Organization Admin login Nexus" style="whiteSpace=wrap;html=1;rounded=0;" vertex="1" parent="1">
          <mxGeometry x="280" y="330" width="120" height="60" as="geometry" />
        </mxCell>
        <mxCell id="Og3__Hb2zOryTFHM7Znv-11" value="" style="edgeStyle=orthogonalEdgeStyle;rounded=0;orthogonalLoop=1;jettySize=auto;html=1;" edge="1" parent="1" source="Og3__Hb2zOryTFHM7Znv-7" target="Og3__Hb2zOryTFHM7Znv-10">
          <mxGeometry relative="1" as="geometry" />
        </mxCell>
        <mxCell id="Og3__Hb2zOryTFHM7Znv-7" value="Admin go to App/Software page" style="whiteSpace=wrap;html=1;rounded=0;" vertex="1" parent="1">
          <mxGeometry x="480" y="330" width="120" height="60" as="geometry" />
        </mxCell>
        <mxCell id="Og3__Hb2zOryTFHM7Znv-13" value="" style="edgeStyle=orthogonalEdgeStyle;rounded=0;orthogonalLoop=1;jettySize=auto;html=1;" edge="1" parent="1" source="Og3__Hb2zOryTFHM7Znv-10" target="Og3__Hb2zOryTFHM7Znv-12">
          <mxGeometry relative="1" as="geometry" />
        </mxCell>
        <mxCell id="Og3__Hb2zOryTFHM7Znv-10" value="Admin review the software of which license is reduced" style="whiteSpace=wrap;html=1;rounded=0;" vertex="1" parent="1">
          <mxGeometry x="680" y="330" width="120" height="60" as="geometry" />
        </mxCell>
        <mxCell id="Og3__Hb2zOryTFHM7Znv-15" value="" style="edgeStyle=orthogonalEdgeStyle;rounded=0;orthogonalLoop=1;jettySize=auto;html=1;" edge="1" parent="1" source="Og3__Hb2zOryTFHM7Znv-12" target="Og3__Hb2zOryTFHM7Znv-14">
          <mxGeometry relative="1" as="geometry">
            <Array as="points">
              <mxPoint x="940" y="440" />
              <mxPoint x="130" y="440" />
            </Array>
          </mxGeometry>
        </mxCell>
        <mxCell id="Og3__Hb2zOryTFHM7Znv-12" value="Admin re-assign software licenses to users" style="whiteSpace=wrap;html=1;rounded=0;" vertex="1" parent="1">
          <mxGeometry x="880" y="330" width="120" height="60" as="geometry" />
        </mxCell>
        <mxCell id="Og3__Hb2zOryTFHM7Znv-17" value="" style="edgeStyle=orthogonalEdgeStyle;rounded=0;orthogonalLoop=1;jettySize=auto;html=1;" edge="1" parent="1" source="Og3__Hb2zOryTFHM7Znv-14" target="Og3__Hb2zOryTFHM7Znv-16">
          <mxGeometry relative="1" as="geometry" />
        </mxCell>
        <mxCell id="Og3__Hb2zOryTFHM7Znv-14" value="User login Nexus" style="whiteSpace=wrap;html=1;rounded=0;" vertex="1" parent="1">
          <mxGeometry x="70" y="500" width="120" height="60" as="geometry" />
        </mxCell>
        <mxCell id="Og3__Hb2zOryTFHM7Znv-16" value="User verify the re-assigned license" style="whiteSpace=wrap;html=1;rounded=0;" vertex="1" parent="1">
          <mxGeometry x="270" y="500" width="120" height="60" as="geometry" />
        </mxCell>
      </root>
    </mxGraphModel>
  </diagram>
  <diagram id="x4X-Ben7ihlHkbEoHk_z" name="License Limit Reduced Dataflow">
    <mxGraphModel dx="2284" dy="1874" grid="1" gridSize="10" guides="1" tooltips="1" connect="1" arrows="1" fold="1" page="1" pageScale="1" pageWidth="850" pageHeight="1100" math="0" shadow="0">
      <root>
        <mxCell id="0" />
        <mxCell id="1" parent="0" />
        <mxCell id="HK0WFAyOnRqxtyYE6ZAg-1" value="Customer" style="whiteSpace=wrap;align=center;verticalAlign=middle;fontStyle=1;strokeWidth=3;fillColor=#FFFFCC" vertex="1" parent="1">
          <mxGeometry x="-60" y="-1050" width="90" height="60" as="geometry" />
        </mxCell>
        <mxCell id="HK0WFAyOnRqxtyYE6ZAg-2" value="" style="edgeStyle=none;noEdgeStyle=1;strokeColor=#990000;strokeWidth=2;entryX=0;entryY=0.5;entryDx=0;entryDy=0;" edge="1" parent="1" source="HK0WFAyOnRqxtyYE6ZAg-1" target="HK0WFAyOnRqxtyYE6ZAg-13">
          <mxGeometry width="100" height="100" relative="1" as="geometry">
            <mxPoint x="340.5" y="-1111" as="sourcePoint" />
            <mxPoint x="120.5" y="-1020" as="targetPoint" />
          </mxGeometry>
        </mxCell>
        <mxCell id="HK0WFAyOnRqxtyYE6ZAg-3" value="Sentinel" style="shape=process;whiteSpace=wrap;align=center;verticalAlign=middle;size=0.0475;fontStyle=1;strokeWidth=3;fillColor=#FFCCCC" vertex="1" parent="1">
          <mxGeometry x="513.5" y="-875" width="151.5" height="50" as="geometry" />
        </mxCell>
        <mxCell id="HK0WFAyOnRqxtyYE6ZAg-4" value="Team HULL" style="whiteSpace=wrap;align=center;verticalAlign=middle;fontStyle=1;strokeWidth=3;fillColor=#FFFFCC" vertex="1" parent="1">
          <mxGeometry x="301.5" y="-1050" width="90" height="60" as="geometry" />
        </mxCell>
        <mxCell id="HK0WFAyOnRqxtyYE6ZAg-5" value="" style="edgeStyle=none;noEdgeStyle=1;strokeColor=#990000;strokeWidth=2;entryX=0;entryY=0.5;entryDx=0;entryDy=0;exitX=1;exitY=0.5;exitDx=0;exitDy=0;" edge="1" parent="1" source="HK0WFAyOnRqxtyYE6ZAg-20" target="HK0WFAyOnRqxtyYE6ZAg-3">
          <mxGeometry width="100" height="100" relative="1" as="geometry">
            <mxPoint x="351" y="-850.5" as="sourcePoint" />
            <mxPoint x="505" y="-850" as="targetPoint" />
          </mxGeometry>
        </mxCell>
        <mxCell id="HK0WFAyOnRqxtyYE6ZAg-6" value="Organization Admin" style="whiteSpace=wrap;align=center;verticalAlign=middle;fontStyle=1;strokeWidth=3;fillColor=#FFFFCC" vertex="1" parent="1">
          <mxGeometry x="544.25" y="-594" width="90" height="60" as="geometry" />
        </mxCell>
        <mxCell id="HK0WFAyOnRqxtyYE6ZAg-7" value="" style="edgeStyle=none;noEdgeStyle=1;strokeColor=#990000;strokeWidth=2;exitX=0.5;exitY=1;exitDx=0;exitDy=0;entryX=0.5;entryY=0;entryDx=0;entryDy=0;" edge="1" parent="1" source="HK0WFAyOnRqxtyYE6ZAg-3" target="HK0WFAyOnRqxtyYE6ZAg-8">
          <mxGeometry width="100" height="100" relative="1" as="geometry">
            <mxPoint x="361" y="-840.5" as="sourcePoint" />
            <mxPoint x="589" y="-750" as="targetPoint" />
          </mxGeometry>
        </mxCell>
        <mxCell id="HK0WFAyOnRqxtyYE6ZAg-8" value="Nexus EMS" style="shape=process;whiteSpace=wrap;align=center;verticalAlign=middle;size=0.0475;fontStyle=1;strokeWidth=3;fillColor=#FFCCCC" vertex="1" parent="1">
          <mxGeometry x="513.5" y="-740" width="151.5" height="50" as="geometry" />
        </mxCell>
        <mxCell id="HK0WFAyOnRqxtyYE6ZAg-9" value="Target license Unbound" style="text;spacingTop=-5;align=center;whiteSpace=wrap;" vertex="1" parent="1">
          <mxGeometry x="580" y="-800" width="104" height="20" as="geometry" />
        </mxCell>
        <mxCell id="HK0WFAyOnRqxtyYE6ZAg-12" value="" style="edgeStyle=none;noEdgeStyle=1;strokeColor=#990000;strokeWidth=2;exitX=0.5;exitY=1;exitDx=0;exitDy=0;entryX=0.5;entryY=0;entryDx=0;entryDy=0;" edge="1" parent="1" source="HK0WFAyOnRqxtyYE6ZAg-8" target="HK0WFAyOnRqxtyYE6ZAg-6">
          <mxGeometry width="100" height="100" relative="1" as="geometry">
            <mxPoint x="589.25" y="-664" as="sourcePoint" />
            <mxPoint x="599" y="-704" as="targetPoint" />
          </mxGeometry>
        </mxCell>
        <mxCell id="HK0WFAyOnRqxtyYE6ZAg-13" value="&lt;p style=&quot;margin: 0px; margin-top: 4px; text-align: center; text-decoration: underline;&quot;&gt;&lt;/p&gt;&lt;p style=&quot;margin: 0px; margin-left: 8px;&quot;&gt;&lt;br&gt;&lt;/p&gt;&lt;p style=&quot;margin: 0px; margin-left: 8px;&quot;&gt;&lt;span style=&quot;background-color: initial;&quot;&gt;&lt;br&gt;&lt;/span&gt;&lt;/p&gt;&lt;p style=&quot;margin: 0px; margin-left: 8px;&quot;&gt;&lt;span style=&quot;background-color: initial;&quot;&gt;Ask for reducing license limit&lt;/span&gt;&lt;br&gt;&lt;/p&gt;" style="verticalAlign=middle;align=center;overflow=fill;fontSize=12;fontFamily=Helvetica;html=1;rounded=1;fontStyle=1;strokeWidth=3;fillColor=#E6FFCC;whiteSpace=wrap;" vertex="1" parent="1">
          <mxGeometry x="113" y="-1065" width="110" height="90" as="geometry" />
        </mxCell>
        <mxCell id="HK0WFAyOnRqxtyYE6ZAg-14" value="" style="edgeStyle=none;noEdgeStyle=1;strokeColor=#990000;strokeWidth=2;exitX=1;exitY=0.5;exitDx=0;exitDy=0;entryX=0;entryY=0.5;entryDx=0;entryDy=0;" edge="1" parent="1" source="HK0WFAyOnRqxtyYE6ZAg-13" target="HK0WFAyOnRqxtyYE6ZAg-4">
          <mxGeometry width="100" height="100" relative="1" as="geometry">
            <mxPoint x="230.5" y="-1020" as="sourcePoint" />
            <mxPoint x="130.5" y="-1010" as="targetPoint" />
          </mxGeometry>
        </mxCell>
        <mxCell id="HK0WFAyOnRqxtyYE6ZAg-20" value="&lt;p style=&quot;margin: 0px; margin-top: 4px; text-align: center; text-decoration: underline;&quot;&gt;&lt;/p&gt;&lt;p style=&quot;margin: 0px; margin-left: 8px;&quot;&gt;&lt;br&gt;&lt;/p&gt;&lt;p style=&quot;margin: 0px; margin-left: 8px;&quot;&gt;&lt;br&gt;&lt;/p&gt;&lt;p style=&quot;margin: 0px; margin-left: 8px;&quot;&gt;Reduce license limit in Sentinel&lt;br&gt;&lt;/p&gt;" style="verticalAlign=middle;align=center;overflow=fill;fontSize=12;fontFamily=Helvetica;html=1;rounded=1;fontStyle=1;strokeWidth=3;fillColor=#E6FFCC;whiteSpace=wrap;" vertex="1" parent="1">
          <mxGeometry x="289" y="-895" width="110" height="90" as="geometry" />
        </mxCell>
        <mxCell id="HK0WFAyOnRqxtyYE6ZAg-21" value="" style="edgeStyle=none;noEdgeStyle=1;strokeColor=#990000;strokeWidth=2;exitX=0.5;exitY=1;exitDx=0;exitDy=0;" edge="1" parent="1" source="HK0WFAyOnRqxtyYE6ZAg-4" target="HK0WFAyOnRqxtyYE6ZAg-20">
          <mxGeometry width="100" height="100" relative="1" as="geometry">
            <mxPoint x="233" y="-1025" as="sourcePoint" />
            <mxPoint x="304" y="-1025" as="targetPoint" />
          </mxGeometry>
        </mxCell>
        <mxCell id="HK0WFAyOnRqxtyYE6ZAg-22" value="&lt;p style=&quot;margin: 0px; margin-top: 4px; text-align: center; text-decoration: underline;&quot;&gt;&lt;/p&gt;&lt;p style=&quot;margin: 0px; margin-left: 8px;&quot;&gt;&lt;br&gt;&lt;/p&gt;&lt;p style=&quot;margin: 0px; margin-left: 8px;&quot;&gt;&lt;br&gt;&lt;/p&gt;&lt;p style=&quot;margin: 0px; margin-left: 8px;&quot;&gt;Re-assign user to entitlements&lt;br&gt;&lt;/p&gt;" style="verticalAlign=middle;align=center;overflow=fill;fontSize=12;fontFamily=Helvetica;html=1;rounded=1;fontStyle=1;strokeWidth=3;fillColor=#E6FFCC;whiteSpace=wrap;" vertex="1" parent="1">
          <mxGeometry x="286" y="-690" width="110" height="90" as="geometry" />
        </mxCell>
        <mxCell id="HK0WFAyOnRqxtyYE6ZAg-23" value="" style="edgeStyle=none;noEdgeStyle=1;strokeColor=#990000;strokeWidth=2;entryX=0.5;entryY=1;entryDx=0;entryDy=0;exitX=0;exitY=0.5;exitDx=0;exitDy=0;" edge="1" parent="1" source="HK0WFAyOnRqxtyYE6ZAg-6" target="HK0WFAyOnRqxtyYE6ZAg-22">
          <mxGeometry width="100" height="100" relative="1" as="geometry">
            <mxPoint x="409" y="-814" as="sourcePoint" />
            <mxPoint x="346" y="-594" as="targetPoint" />
            <Array as="points">
              <mxPoint x="340" y="-564" />
            </Array>
          </mxGeometry>
        </mxCell>
        <mxCell id="HK0WFAyOnRqxtyYE6ZAg-24" value="" style="edgeStyle=none;noEdgeStyle=1;strokeColor=#990000;strokeWidth=2;entryX=0;entryY=0.5;entryDx=0;entryDy=0;exitX=0.5;exitY=0;exitDx=0;exitDy=0;" edge="1" parent="1" source="HK0WFAyOnRqxtyYE6ZAg-22" target="HK0WFAyOnRqxtyYE6ZAg-8">
          <mxGeometry width="100" height="100" relative="1" as="geometry">
            <mxPoint x="554" y="-554" as="sourcePoint" />
            <mxPoint x="351" y="-590" as="targetPoint" />
            <Array as="points">
              <mxPoint x="340" y="-715" />
            </Array>
          </mxGeometry>
        </mxCell>
        <mxCell id="HK0WFAyOnRqxtyYE6ZAg-28" value="" style="edgeStyle=none;noEdgeStyle=1;strokeColor=#990000;strokeWidth=2;entryX=1;entryY=0.5;entryDx=0;entryDy=0;exitX=0.967;exitY=0.49;exitDx=0;exitDy=0;exitPerimeter=0;" edge="1" parent="1" source="HK0WFAyOnRqxtyYE6ZAg-3" target="HK0WFAyOnRqxtyYE6ZAg-6">
          <mxGeometry width="100" height="100" relative="1" as="geometry">
            <mxPoint x="670" y="-850.5" as="sourcePoint" />
            <mxPoint x="785" y="-850.5" as="targetPoint" />
            <Array as="points">
              <mxPoint x="800" y="-850" />
              <mxPoint x="800" y="-564" />
            </Array>
          </mxGeometry>
        </mxCell>
        <mxCell id="HK0WFAyOnRqxtyYE6ZAg-29" value="Notification sent for license limit reduction" style="text;spacingTop=-5;align=center;whiteSpace=wrap;" vertex="1" parent="1">
          <mxGeometry x="800" y="-740" width="104" height="20" as="geometry" />
        </mxCell>
        <mxCell id="HK0WFAyOnRqxtyYE6ZAg-30" style="edgeStyle=orthogonalEdgeStyle;rounded=0;orthogonalLoop=1;jettySize=auto;html=1;exitX=0.5;exitY=1;exitDx=0;exitDy=0;" edge="1" parent="1" source="HK0WFAyOnRqxtyYE6ZAg-29" target="HK0WFAyOnRqxtyYE6ZAg-29">
          <mxGeometry relative="1" as="geometry" />
        </mxCell>
      </root>
    </mxGraphModel>
  </diagram>
</mxfile>
